#!OML:ASF H:\Male1\Project 1\Capture day 1\Session 1\Male1.ASF
:FULLY-SPECIFIED
:DEGREES
483
root -6.81916 15.2643 -3.67601 0.383462 -58.5879 0.299459
lowerback 13.9764 1.27761 4.22757
upperback 11.4421 1.54493 2.70639
thorax 4.36729 0.733008 0.311316
lowerneck -9.041 -5.9957 -1.4808
upperneck 8.00514 -9.18154 11.9658
head 4.53215 -3.95708 3.28461
rclavicle -1.90833e-014 -6.75868e-014
rhumerus -1.39716 29.8086 -79.1356
rradius 47.6202
rwrist -68.3417
rhand -31.0256 -26.6081
rfingers 7.12502
rthumb -4.30783 -56.5443
lclavicle -1.90833e-014 -6.75868e-014
lhumerus -4.47582 -46.9264 89.2789
lradius 51.877
lwrist 20.4273
lhand -17.4623 30.0495
lfingers 7.12502
lthumb 8.78926 59.8464
rfemur -13.4018 5.7021 23.2769
rtibia 28.9401
rfoot -25.2156 -27.7745
rtoes -16.0906
lfemur -20.3849 -16.3258 -18.0324
ltibia 35.9993
lfoot -18.6271 12.1124
ltoes -22.5878
484
root -6.86139 15.2607 -3.63517 0.892873 -59.4727 -0.439604
lowerback 13.906 1.43001 4.33475
upperback 11.3547 1.75707 2.65038
thorax 4.32096 0.847049 0.172034
lowerneck -9.06747 -5.81509 -1.49937
upperneck 8.34241 -8.97274 11.9279
head 4.62374 -3.84268 3.28955
rclavicle -4.13472e-014 5.88403e-014
rhumerus -3.24639 31.9248 -80.0901
rradius 49.5865
rwrist -69.528
rhand -31.3194 -26.6911
rfingers 7.12502
rthumb -4.5916 -56.6213
lclavicle -4.13472e-014 5.88403e-014
lhumerus -7.02491 -45.5744 89.9491
lradius 53.6565
lwrist 20.615
lhand -17.3451 29.888
lfingers 7.12502
lthumb 8.9023 59.6802
rfemur -12.8644 6.31232 23.7208
rtibia 28.5321
rfoot -24.9063 -27.7508
rtoes -17.035
lfemur -20.7228 -16.6017 -17.6605
ltibia 35.9252
lfoot -18.5755 11.9999
ltoes -22.2876
485
root -6.90324 15.2564 -3.59079 1.48139 -60.4161 -1.27399
lowerback 13.8232 1.58617 4.44817
upperback 11.268 1.9737 2.59137
thorax 4.28429 0.963689 0.0264386
lowerneck -9.07251 -5.6157 -1.46765
upperneck 8.68603 -8.73763 11.8287
head 4.7068 -3.71794 3.27057
rclavicle 9.02482e-014 4.13472e-014
rhumerus -5.13631 34.0105 -81.2235
rradius 51.4902
rwrist -70.6408
rhand -31.5483 -26.7822
rfingers 7.12502
rthumb -4.81261 -56.7075
lclavicle 9.02482e-014 4.13472e-014
lhumerus -9.53134 -44.0879 90.5591
lradius 55.1657
lwrist 20.6806
lhand -17.2514 29.7821
lfingers 7.12502
lthumb 8.99275 59.5705
rfemur -12.2961 6.90645 24.1826
rtibia 28.1007
rfoot -24.5232 -27.6833
rtoes -18.0765
lfemur -20.9531 -16.9113 -17.2495
ltibia 35.7622
lfoot -18.2122 11.9092
ltoes -21.9899
486
root -6.94551 15.2508 -3.54244 2.09984 -61.423 -2.14914
lowerback 13.7153 1.74668 4.53029
upperback 11.1858 2.19149 2.5205
thorax 4.26621 1.0796 -0.112995
lowerneck -9.06294 -5.39478 -1.35232
upperneck 9.03196 -8.47265 11.64
head 4.77883 -3.58151 3.21345
rclavicle 8.15017e-014 -2.46493e-014
rhumerus -7.04032 36.0276 -82.5476
rradius 53.2918
rwrist -71.6391
rhand -31.7372 -26.892
rfingers 7.12502
rthumb -4.99501 -56.8131
lclavicle 8.15017e-014 -2.46493e-014
lhumerus -11.9753 -42.4491 91.0955
lradius 56.3545
lwrist 20.5459
lhand -17.1769 29.6897
lfingers 7.12502
lthumb 9.0646 59.4749
rfemur -11.7074 7.46124 24.6244
rtibia 27.6803
rfoot -24.0939 -27.5385
rtoes -19.215
lfemur -21.038 -17.2334 -16.8515
ltibia 35.5367
lfoot -17.5102 11.8527
ltoes -21.068
487
root -6.98776 15.2432 -3.49079 2.7219 -62.4583 -3.04083
lowerback 13.5895 1.89916 4.57007
upperback 11.1063 2.39428 2.43018
thorax 4.2599 1.1864 -0.246646
lowerneck -9.03623 -5.15148 -1.13718
upperneck 9.37336 -8.17887 11.3699
head 4.83809 -3.43336 3.11778
rclavicle -5.80451e-014 1.59028e-015
rhumerus -8.93323 37.9421 -84.0499
rradius 54.9869
rwrist -72.5074
rhand -31.8882 -27.0802
rfingers 7.12502
rthumb -5.14079 -56.9978
lclavicle -5.80451e-014 1.59028e-015
lhumerus -14.3374 -40.6321 91.5373
lradius 57.1948
lwrist 20.1567
lhand -17.1146 29.5736
lfingers 7.12502
lthumb 9.12475 59.3562
rfemur -11.114 7.94706 25.0285
rtibia 27.3093
rfoot -23.6614 -27.3084
rtoes -20.3901
lfemur -20.9355 -17.5375 -16.5064
ltibia 35.2925
lfoot -16.6589 11.9721
ltoes -19.8922
488
root -7.0295 15.2341 -3.43664 3.30106 -63.495 -3.90052
lowerback 13.4524 2.03232 4.54306
upperback 11.0301 2.5659 2.31081
thorax 4.26021 1.27495 -0.369734
lowerneck -8.99346 -4.87772 -0.792688
upperneck 9.70227 -7.84957 11.0261
head 4.88235 -3.26902 2.98143
rclavicle -1.19271e-015 1.82882e-014
rhumerus -10.7839 39.753 -85.6967
rradius 56.5855
rwrist -73.2395
rhand -31.9984 -27.354
rfingers 7.12502
rthumb -5.24722 -57.2691
lclavicle -1.19271e-015 1.82882e-014
lhumerus -16.5572 -38.6442 91.8375
lradius 57.6216
lwrist 19.5478
lhand -17.152 29.3207
lfingers 7.12502
lthumb 9.08868 59.1049
rfemur -10.5328 8.35174 25.3695
rtibia 27.0164
rfoot -23.2584 -26.9957
rtoes -21.5176
lfemur -20.6255 -17.7708 -16.263
ltibia 35.0758
lfoot -15.8739 12.3046
ltoes -18.3994
